<?xml version="1.0" encoding="UTF-8"?> <svg xmlns="http://www.w3.org/2000/svg" width="260" height="200" viewBox="0 0 260 200" fill="none"> <g clip-path="url(#clip0_901_2153)"> <rect width="260" height="200" fill="#D8D9DA"></rect> <path d="M202.011 -33.6564L-5.85692 158.247C-6.4732 160.726 -8.22092 162.735 -10.76 163.532C-12.2971 164.01 -13.8947 163.946 -15.3178 163.428C-15.3178 163.428 -15.3311 163.42 -15.3386 163.433L-7.11459 46.1746L80.134 -107L202.011 -33.6564Z" fill="#FF4F12"></path> <path d="M-39.9567 -79.8298L129.304 -121.602C132.479 -122.494 135.895 -121.821 138.496 -119.489C140.065 -118.075 141.072 -116.248 141.456 -114.325C141.456 -114.325 141.456 -114.305 141.476 -114.305L164.761 0.106316L-41.2625 107.777L-39.9567 -79.8298Z" fill="#6A25F5"></path> <path d="M186.951 13.2674C187.033 13.914 186.922 14.5705 186.631 15.1537C186.34 15.7369 185.882 16.2207 185.316 16.5438C184.75 16.8669 184.101 17.0148 183.451 16.9688C182.801 16.9228 182.179 16.6849 181.664 16.2853C181.149 15.8857 180.764 15.3423 180.558 14.7239C180.352 14.1055 180.334 13.4399 180.507 12.8114C180.679 12.1828 181.034 11.6196 181.527 11.193C182.02 10.7663 182.628 10.4955 183.275 10.4147C184.141 10.3065 185.014 10.5462 185.703 11.081C186.392 11.6158 186.841 12.4021 186.951 13.2674Z" fill="#66CCB2"></path> <path d="M213.028 29.7807C213.536 33.3734 215.943 35.4365 219.015 37.07C224.632 40.0671 227.135 42.8992 227.45 49.4014C227.57 51.8092 231.411 52.2203 231.745 49.7278C231.938 47.857 231.74 45.9666 231.165 44.1761C230.59 42.3856 229.649 40.734 228.402 39.326C227.025 37.7385 225.319 36.4701 223.402 35.609C220.434 34.2018 216.095 33.6453 215.423 29.6417C215.176 28.1406 212.797 28.2238 213.02 29.7683L213.028 29.7807Z" fill="#FFB000"></path> <path d="M27.3613 26.7642C27.2896 28.4022 27.6936 30.026 28.5245 31.4394C29.3554 32.8529 30.5777 33.9956 32.0438 34.7297C33.5626 35.6127 35.4841 36.1999 36.4431 37.7779C37.4022 39.3559 37.0589 41.3686 38.4558 42.9276C38.775 43.3301 39.1926 43.6433 39.6683 43.8371C40.1439 44.031 40.6615 44.0987 41.1711 44.0339C41.6806 43.9691 42.1648 43.7739 42.5767 43.4671C42.9887 43.1604 43.3146 42.7525 43.5228 42.283C44.8597 39.141 43.1577 34.9913 40.8335 32.5841C39.666 31.5054 38.3138 30.6459 36.8416 30.0466C35.3849 29.3636 32.7395 28.7584 32.6239 26.7918C32.4323 23.8442 27.4827 23.7768 27.3357 26.7552L27.3613 26.7642Z" fill="#7CC7A6"></path> <path d="M29.9508 182.267C30.033 182.914 29.9216 183.57 29.6306 184.154C29.3396 184.737 28.8822 185.221 28.3161 185.544C27.75 185.867 27.1008 186.015 26.4507 185.969C25.8005 185.923 25.1786 185.685 24.6637 185.285C24.1488 184.886 23.764 184.342 23.5581 183.724C23.3522 183.105 23.3343 182.44 23.5068 181.811C23.6793 181.183 24.0344 180.62 24.5272 180.193C25.0199 179.766 25.6282 179.495 26.2749 179.415C27.1405 179.307 28.0136 179.546 28.7027 180.081C29.3919 180.616 29.8407 181.402 29.9508 182.267Z" fill="#FF4F12"></path> <path d="M25.5484 125.971C27.7019 126.134 29.8656 126.105 32.0141 125.884C32.431 125.84 33.2308 125.853 33.463 125.404C34.0231 124.319 32.1369 122.906 30.9723 118.996C30.4673 117.295 29.2726 113.837 31.5242 112.899C32.6757 112.42 34.1908 112.554 35.4174 112.463C36.3484 112.397 37.2792 112.29 38.208 112.204C35.9113 105.885 35.5602 106.282 36.086 104.772C36.1704 104.571 36.3307 104.412 36.5319 104.33C36.7331 104.247 36.9588 104.248 37.1596 104.331C38.5436 105.069 38.1522 104.929 41.1349 112.867C41.2049 113.047 41.2335 113.24 41.2185 113.432C41.2034 113.625 41.1452 113.811 41.0482 113.978C40.9512 114.144 40.8178 114.287 40.658 114.395C40.4983 114.502 40.3164 114.573 40.1258 114.6C38.8783 114.694 33.1249 114.803 32.4233 114.931C32.4753 114.994 32.442 115.305 32.4481 115.372C32.7445 118.063 33.8888 120.254 35.0701 122.623C36.0481 124.563 36.2837 127.285 33.7619 128.111C32.3987 128.558 29.5299 128.64 27.3118 128.605C28.8593 132.439 30.4361 136.268 31.9582 140.107C32.2592 140.859 31.7792 142.013 30.8454 142.021C28.2792 142.044 25.7213 142.156 23.1614 142.287C24.0946 144.545 25.371 146.644 26.9453 148.51C28.104 149.889 26.2134 151.907 23.5203 148.226C21.9496 146.212 20.7248 143.951 19.8962 141.534C19.6173 140.722 20.069 139.694 21.0135 139.617C23.543 139.412 26.0867 139.32 28.6295 139.282C27.1319 135.444 25.6776 131.586 24.18 127.749C24.0966 127.539 24.0692 127.31 24.1006 127.086C24.132 126.862 24.2211 126.649 24.3591 126.47C24.4971 126.291 24.6793 126.151 24.8878 126.063C25.0964 125.976 25.324 125.944 25.5484 125.971V125.971Z" fill="#66CCB2"></path> <path d="M229.615 91.6856C229.812 91.787 229.984 91.9325 230.116 92.1109C230.248 92.2894 230.337 92.4959 230.376 92.7145C230.416 92.9331 230.405 93.158 230.344 93.3716C230.283 93.5852 230.173 93.7819 230.024 93.9465C229.026 94.9647 228.043 95.9991 227.052 97.0321C224.854 99.2992 224.713 99.3258 224.793 99.6584C224.934 100.448 226.361 100.431 226.888 100.378C228.05 100.258 229.191 99.8512 230.379 99.9586C232.682 100.193 233.921 102.278 232.427 104.221C231.062 105.994 229.57 107.704 228.1 109.4C230.614 109.461 233.135 109.454 235.643 109.554C235.835 109.548 236.024 109.598 236.188 109.699C236.352 109.799 236.483 109.945 236.566 110.118C236.649 110.292 236.68 110.486 236.654 110.677C236.629 110.868 236.549 111.047 236.424 111.193L230.666 118.996C230.371 119.402 228.783 121.092 229.092 121.559C229.4 122.025 231.123 121.898 231.512 121.936C233.67 122.114 234.428 122.205 241.436 122.948C241.637 122.99 241.823 123.084 241.976 123.221C242.129 123.359 242.242 123.535 242.305 123.73C242.368 123.926 242.378 124.135 242.334 124.336C242.291 124.537 242.194 124.723 242.055 124.875C235.774 130.425 236.444 131.229 234.537 131.758C234.446 131.785 234.351 131.789 234.259 131.768C234.167 131.747 234.082 131.703 234.011 131.641C233.941 131.578 233.888 131.498 233.858 131.409C233.827 131.319 233.82 131.224 233.836 131.131C233.914 130.095 234.004 129.855 236.521 127.099C237.173 126.383 237.844 125.688 238.526 125.009C230.007 124.273 227.835 124.288 227.139 122.194C226.653 120.745 227.114 120.467 233.668 111.626C231.032 111.696 228.4 111.606 225.755 111.565C225.536 111.572 225.319 111.514 225.133 111.399C224.946 111.285 224.796 111.118 224.702 110.92C224.608 110.722 224.573 110.5 224.603 110.282C224.632 110.065 224.724 109.86 224.867 109.694C229.792 103.361 230.177 103.398 230.458 102.72C230.458 102.72 230.916 102.701 230.263 102.61C229.143 102.455 226.756 103.588 224.713 102.858C222.91 102.215 221.502 100.302 222.38 98.3661C222.89 97.2525 223.419 96.9399 226.513 93.5371C224.396 92.573 222.4 91.3627 220.566 89.931C219.79 89.4004 219.197 88.6421 218.868 87.7602C218.806 87.56 218.796 87.3469 218.84 87.1418C218.885 86.9367 218.981 86.7465 219.12 86.5898C219.26 86.4331 219.437 86.3152 219.636 86.2477C219.834 86.1802 220.046 86.1654 220.252 86.2046C222.666 86.9182 223.305 89.0579 229.615 91.6856Z" fill="#F47458"></path> <path d="M228.384 185.832C228.022 181.503 233.822 178.491 236.018 175.236C238.214 171.982 239.81 168.017 238.732 164.363C238.583 164.026 238.339 163.74 238.03 163.539C237.721 163.337 237.361 163.23 236.992 163.229C236.623 163.228 236.262 163.334 235.953 163.533C235.643 163.733 235.397 164.018 235.246 164.355C234.542 166.617 234.743 168.997 233.784 171.204C232.541 173.57 230.866 175.683 228.846 177.432C226.343 179.996 224.336 182.555 224.696 186.301C224.927 188.692 228.57 188.214 228.384 185.832V185.832Z" fill="#6A25F5"></path> </g> <defs> <clipPath id="clip0_901_2153"> <rect width="260" height="200" fill="white"></rect> </clipPath> </defs> </svg> 