<?xml version="1.0" encoding="UTF-8"?> <svg xmlns="http://www.w3.org/2000/svg" width="260" height="213" viewBox="0 0 260 213" fill="none"> <g clip-path="url(#clip0_65_318)"> <rect x="315.05" y="8.7323" width="136.618" height="238.755" rx="25" transform="rotate(103.499 315.05 8.7323)" fill="#FF4F12"></rect> <path d="M208.947 8.19137C223.643 11.7192 230.99 13.4831 235.705 17.7215C239.847 21.4454 242.626 26.4457 243.603 31.9293C244.714 38.1706 242.334 45.3424 237.574 59.686L202.649 164.915C197.611 180.097 195.091 187.688 190.2 192.108C185.906 195.987 180.4 198.256 174.62 198.529C168.035 198.84 160.898 195.229 146.625 188.006L-23.1526 102.095C-36.3134 95.4351 -42.8938 92.1052 -46.4829 87.0109C-49.6375 82.5334 -51.2343 77.1438 -51.028 71.6705C-50.7933 65.4432 -47.0888 59.0662 -39.68 46.3121L-4.77929 -13.7683C0.588713 -23.0092 3.27271 -27.6296 7.11092 -30.6115C10.4992 -33.2438 14.5078 -34.9598 18.7513 -35.5944C23.5582 -36.3132 28.754 -35.0659 39.1456 -32.5713L208.947 8.19137Z" fill="#6A25F5"></path> </g> <defs> <clipPath id="clip0_65_318"> <rect width="260" height="213" fill="white"></rect> </clipPath> </defs> </svg> 