<?xml version="1.0" encoding="UTF-8"?> <svg xmlns="http://www.w3.org/2000/svg" width="260" height="200" viewBox="0 0 260 200" fill="none"> <g clip-path="url(#clip0_901_2153)"> <rect width="260" height="200" transform="matrix(-1 0 0 1 260 0)" fill="#D8D9DA"></rect> <path d="M57.9894 -33.6564L265.857 158.247C266.473 160.726 268.221 162.735 270.76 163.532C272.297 164.01 273.895 163.946 275.318 163.428C275.318 163.428 275.331 163.42 275.339 163.433L267.115 46.1746L179.866 -107L57.9894 -33.6564Z" fill="#FF4F12"></path> <path d="M299.957 -79.8298L130.696 -121.602C127.521 -122.494 124.105 -121.821 121.504 -119.489C119.935 -118.075 118.928 -116.248 118.544 -114.325C118.544 -114.325 118.544 -114.305 118.524 -114.305L95.2393 0.106315L301.262 107.777L299.957 -79.8298Z" fill="#6A25F5"></path> <path d="M73.0492 13.2674C72.967 13.914 73.0784 14.5705 73.3694 15.1537C73.6604 15.7369 74.1178 16.2207 74.6839 16.5438C75.25 16.8669 75.8992 17.0148 76.5493 16.9688C77.1995 16.9228 77.8214 16.6849 78.3363 16.2853C78.8512 15.8857 79.236 15.3423 79.4419 14.7239C79.6478 14.1055 79.6657 13.4399 79.4932 12.8114C79.3207 12.1828 78.9656 11.6196 78.4728 11.193C77.9801 10.7663 77.3718 10.4955 76.7251 10.4147C75.8595 10.3065 74.9864 10.5462 74.2973 11.081C73.6081 11.6158 73.1593 12.4021 73.0492 13.2674Z" fill="#66CCB2"></path> <path d="M46.9722 29.7807C46.4643 33.3734 44.0572 35.4365 40.9851 37.07C35.3677 40.0671 32.8651 42.8992 32.5501 49.4014C32.4297 51.8092 28.5891 52.2203 28.2553 49.7278C28.0622 47.857 28.2595 45.9666 28.8349 44.1761C29.4102 42.3856 30.351 40.734 31.5978 39.326C32.9749 37.7385 34.6813 36.4701 36.5983 35.609C39.566 34.2018 43.9052 33.6453 44.5767 29.6417C44.8239 28.1406 47.2025 28.2238 46.9804 29.7683L46.9722 29.7807Z" fill="#FFB000"></path> <path d="M232.639 26.7642C232.71 28.4022 232.306 30.026 231.475 31.4394C230.645 32.8529 229.422 33.9956 227.956 34.7297C226.437 35.6127 224.516 36.1999 223.557 37.7779C222.598 39.3559 222.941 41.3686 221.544 42.9276C221.225 43.3301 220.807 43.6433 220.332 43.8371C219.856 44.031 219.338 44.0987 218.829 44.0339C218.319 43.9691 217.835 43.7739 217.423 43.4671C217.011 43.1604 216.685 42.7525 216.477 42.283C215.14 39.141 216.842 34.9913 219.167 32.5841C220.334 31.5054 221.686 30.6459 223.158 30.0466C224.615 29.3636 227.26 28.7584 227.376 26.7918C227.568 23.8442 232.517 23.7768 232.664 26.7552L232.639 26.7642Z" fill="#7CC7A6"></path> <path d="M230.049 182.267C229.967 182.914 230.078 183.57 230.369 184.154C230.66 184.737 231.118 185.221 231.684 185.544C232.25 185.867 232.899 186.015 233.549 185.969C234.199 185.923 234.821 185.685 235.336 185.285C235.851 184.886 236.236 184.342 236.442 183.724C236.648 183.105 236.666 182.44 236.493 181.811C236.321 181.183 235.966 180.62 235.473 180.193C234.98 179.766 234.372 179.495 233.725 179.415C232.859 179.307 231.986 179.546 231.297 180.081C230.608 180.616 230.159 181.402 230.049 182.267Z" fill="#FF4F12"></path> <path d="M234.452 125.971C232.298 126.134 230.134 126.105 227.986 125.884C227.569 125.84 226.769 125.853 226.537 125.404C225.977 124.319 227.863 122.906 229.028 118.996C229.533 117.295 230.727 113.837 228.476 112.899C227.324 112.42 225.809 112.554 224.583 112.463C223.652 112.397 222.721 112.29 221.792 112.204C224.089 105.885 224.44 106.282 223.914 104.772C223.83 104.571 223.669 104.412 223.468 104.33C223.267 104.247 223.041 104.248 222.84 104.331C221.456 105.069 221.848 104.929 218.865 112.867C218.795 113.047 218.767 113.24 218.782 113.432C218.797 113.625 218.855 113.811 218.952 113.978C219.049 114.144 219.182 114.287 219.342 114.395C219.502 114.502 219.684 114.573 219.874 114.6C221.122 114.694 226.875 114.803 227.577 114.931C227.525 114.994 227.558 115.305 227.552 115.372C227.255 118.063 226.111 120.254 224.93 122.623C223.952 124.563 223.716 127.285 226.238 128.111C227.601 128.558 230.47 128.64 232.688 128.605C231.141 132.439 229.564 136.268 228.042 140.107C227.741 140.859 228.221 142.013 229.155 142.021C231.721 142.044 234.279 142.156 236.839 142.287C235.905 144.545 234.629 146.644 233.055 148.51C231.896 149.889 233.787 151.907 236.48 148.226C238.05 146.212 239.275 143.951 240.104 141.534C240.383 140.722 239.931 139.694 238.987 139.617C236.457 139.412 233.913 139.32 231.371 139.282C232.868 135.444 234.322 131.586 235.82 127.749C235.903 127.539 235.931 127.31 235.899 127.086C235.868 126.862 235.779 126.649 235.641 126.47C235.503 126.291 235.321 126.151 235.112 126.063C234.904 125.976 234.676 125.944 234.452 125.971Z" fill="#66CCB2"></path> <path d="M30.3848 91.6856C30.1876 91.787 30.0163 91.9325 29.8843 92.1109C29.7523 92.2894 29.663 92.4959 29.6235 92.7145C29.584 92.9331 29.5952 93.158 29.6563 93.3716C29.7174 93.5852 29.8268 93.7819 29.9759 93.9465C30.974 94.9647 31.9566 95.9991 32.948 97.0321C35.1465 99.2992 35.2874 99.3258 35.2065 99.6584C35.0656 100.448 33.6391 100.431 33.1117 100.378C31.9499 100.258 30.8085 99.8512 29.6211 99.9586C27.3179 100.193 26.0791 102.278 27.5729 104.221C28.9382 105.994 30.4295 107.704 31.9002 109.4C29.3859 109.461 26.8649 109.454 24.3572 109.554C24.1652 109.548 23.9757 109.598 23.8118 109.699C23.6479 109.799 23.5166 109.945 23.4338 110.118C23.3511 110.292 23.3205 110.486 23.3457 110.677C23.371 110.868 23.451 111.047 23.576 111.193L29.3336 118.996C29.629 119.402 31.2169 121.092 30.9083 121.559C30.5997 122.025 28.8773 121.898 28.4879 121.936C26.3299 122.114 25.5718 122.205 18.564 122.948C18.3629 122.99 18.1766 123.084 18.0238 123.221C17.8711 123.359 17.7575 123.535 17.6946 123.73C17.6316 123.926 17.6216 124.135 17.6655 124.336C17.7094 124.537 17.8057 124.723 17.9446 124.875C24.2261 130.425 23.5556 131.229 25.4634 131.758C25.5537 131.785 25.6494 131.789 25.7413 131.768C25.8333 131.747 25.9183 131.703 25.9885 131.641C26.0587 131.578 26.1117 131.498 26.1423 131.409C26.1729 131.319 26.1803 131.224 26.1636 131.131C26.086 130.095 25.9958 129.855 23.479 127.099C22.8271 126.383 22.1561 125.688 21.474 125.009C29.9931 124.273 32.1653 124.288 32.8612 122.194C33.3468 120.745 32.8863 120.467 26.332 111.626C28.9681 111.696 31.6005 111.606 34.2454 111.565C34.4645 111.572 34.6806 111.514 34.8675 111.399C35.0544 111.285 35.204 111.118 35.298 110.92C35.3921 110.722 35.4266 110.5 35.3974 110.282C35.3681 110.065 35.2764 109.86 35.1333 109.694C30.2082 103.361 29.8232 103.398 29.5416 102.72C29.5416 102.72 29.0836 102.701 29.737 102.61C30.8572 102.455 33.2435 103.588 35.2867 102.858C37.0896 102.215 38.4981 100.302 37.6195 98.3661C37.1104 97.2525 36.5805 96.9399 33.4872 93.5371C35.6039 92.573 37.5999 91.3627 39.4341 89.931C40.21 89.4004 40.803 88.6421 41.1316 87.7602C41.1941 87.56 41.2037 87.3469 41.1596 87.1418C41.1154 86.9367 41.0189 86.7465 40.8795 86.5898C40.7402 86.4331 40.5627 86.3152 40.3644 86.2477C40.1661 86.1802 39.9537 86.1654 39.748 86.2046C37.3338 86.9182 36.6954 89.0579 30.3848 91.6856Z" fill="#F47458"></path> <path d="M31.6164 185.832C31.9776 181.503 26.1781 178.491 23.9819 175.236C21.7858 171.982 20.1904 168.017 21.2678 164.363C21.4174 164.026 21.6614 163.74 21.9702 163.539C22.279 163.337 22.6395 163.23 23.0081 163.229C23.3767 163.228 23.7377 163.334 24.0475 163.533C24.3573 163.733 24.6026 164.018 24.7539 164.355C25.4577 166.617 25.2569 168.997 26.2156 171.204C27.4585 173.57 29.1335 175.683 31.154 177.432C33.6566 179.996 35.6641 182.555 35.3043 186.301C35.073 188.692 31.43 188.214 31.6164 185.832Z" fill="#6A25F5"></path> </g> <defs> <clipPath id="clip0_901_2153"> <rect width="260" height="200" fill="white" transform="matrix(-1 0 0 1 260 0)"></rect> </clipPath> </defs> </svg> 